<svg xmlns="http://www.w3.org/2000/svg" width="155" height="88" fill="#5dbd79" xmlns:v="https://vecta.io/nano"><path d="M77.108 17.601c-19.319-.001-37.939 7.221-52.206 20.246S1.753 68.761 0 88h154.216a77.44 77.44 0 0 0-77.108-70.399h0zm29.488 41.736a6.43 6.43 0 0 1 1.078-3.58c.706-1.06 1.711-1.887 2.887-2.376s2.471-.617 3.72-.369a6.44 6.44 0 0 1 5.059 5.059c.248 1.249.119 2.544-.369 3.72a6.44 6.44 0 0 1-2.376 2.887c-1.06.706-2.306 1.081-3.58 1.079a6.42 6.42 0 0 1-6.419-6.42h0zm-65.41 6.42a6.42 6.42 0 0 1-5.921-3.973 6.42 6.42 0 0 1 1.401-6.992 6.42 6.42 0 0 1 6.995-1.386 6.42 6.42 0 0 1 3.96 5.93 6.42 6.42 0 0 1-1.885 4.544 6.42 6.42 0 0 1-4.549 1.876h0z"/><path d="M109.359 34.386c-.483.014-.96-.11-1.375-.357a2.63 2.63 0 0 1-.776-.677 2.62 2.62 0 0 1-.186-2.925l16.689-28.938a2.64 2.64 0 0 1 1.603-1.232c.335-.09.685-.113 1.029-.068s.676.157.976.331a2.67 2.67 0 0 1 .776.679 2.65 2.65 0 0 1 .456.924c.09.335.113.685.068 1.029a2.63 2.63 0 0 1-.331.976l-16.702 28.938c-.225.395-.548.724-.939.955a2.61 2.61 0 0 1-1.288.365h0zm-64.502 0a2.75 2.75 0 0 1-2.296-1.375L25.872 4.073a2.64 2.64 0 0 1 .895-3.718 2.64 2.64 0 0 1 1.008-.336 2.64 2.64 0 0 1 1.058.089 2.64 2.64 0 0 1 1.603 1.327l16.703 28.938a2.63 2.63 0 0 1 .335.974c.047.344.024.693-.066 1.027s-.244.649-.456.923-.475.505-.776.677a2.54 2.54 0 0 1-1.32.412z"/></svg>