<svg xmlns="http://www.w3.org/2000/svg" width="85" height="89" fill="none" xmlns:v="https://vecta.io/nano"><path d="M42.177 0L0 14.654l6.672 54.641L42.22 88.62l35.738-19.584 6.663-54.641L42.177 0z" fill="#bcbcbc"/><path d="M80.224 17.18L42.297 4.301V84l31.893-17.481 6.034-49.34z" fill="#b62025"/><path d="M42.194 4.267L4.396 17.421l6.034 49.357 31.798 17.24.095-.052V4.301l-.129-.034z" fill="#da3226"/><path d="M42.306 8.051v19.162l17.283 37.255h8.887L42.306 8.051z" fill="#bcbcbc"/><path d="M16.11 64.468h8.887l17.24-37.255V8.051L16.11 64.468z" fill="#edeced"/><path d="M42.306 44.323h12.068v8.06H42.306v-8.059z" fill="#bcbcbc"/><path d="M30.221 44.323h12.068v8.06H30.221v-8.059z" fill="#edeced"/></svg>