<svg xmlns="http://www.w3.org/2000/svg" width="106" height="80" fill="none" xmlns:v="https://vecta.io/nano"><path d="M46.771.126l2.504 9.721 3.403 13.422 3.844 15.147 2.506 9.727a1.15 1.15 0 0 1-.544 1.51L42.74 60.617a3.07 3.07 0 0 1-1.636.576l-19.306 1.31c-.515.035-.812-.04-1.049-.575l-4.921-10.834-6.519-14.289-5.626-12.383L.737 18.02c-.043-.123-.091-.259-.267-.246l-.161-.457c-.25-.71.023-.979.723-1.219L45.901.314c.265-.148.568-.214.87-.188z" fill="#f05b31"/><path d="M26.873 17.901l-1.801-5.118c-.169-.482-.107-.719.381-.89L43.21 5.646c.469-.165.713-.084.835.4l1.072 4.369 1.078 4.207 1.589 6.49 1.13 4.279 1.592 6.378 1.022 3.97 1.589 6.49a116.87 116.87 0 0 0 1.199 4.435c.156.444.12.735-.288 1.017l-12.83 8.892c-.554.396-.753.265-.945-.32L38.722 51.9a1.52 1.52 0 0 0-.461-.837.46.46 0 0 1 .106-.252c1.718-1.368 3.57-2.533 5.359-3.8l4.394-3.051a1.16 1.16 0 0 0 .56-1.425l-2.076-8.151-1.976-7.846c-.093-.384-.105-.81-.508-1.049-.35-.052-.708.017-1.013.197l-10.922 3.842c-.357.194-.766.273-1.17.224a1.61 1.61 0 0 1-.581-.941l-1.286-3.655c-.311-.883-.386-.919-1.293-.6l-5.952 2.094c-.358.197-.776.257-1.175.171-.098-.555.39-.588.692-.695l7.175-2.524.29-.102 12.558-4.418c1.235-.434 1.235-.434.918-1.71l-.86-3.451c-.13-.607-.453-.736-1-.536l-12.101 4.257c-.401.18-.828.298-1.265.348a.49.49 0 0 1-.26-.089z" fill="#f37933"/><path d="M28.766 23.792l-7.291 2.607c-.259.091-.604.06-.743.393.879 1.079 1.196 2.355 1.816 3.566a5.69 5.69 0 0 0 .991 1.733 1.31 1.31 0 0 0 .915-.141l5.439-1.914c1-.352 1.186-.258 1.551.759l1.425 4.05c.167.475.121.797-.449.991L20.324 40.09a.65.65 0 0 1-.318.042 13.97 13.97 0 0 1-1.469-2.953l-6.102-13.402c-.113-.321-.451-.632.185-.856l14.097-4.917a.97.97 0 0 1 .298.269.96.96 0 0 1 .162.367L28.709 23a1.02 1.02 0 0 1 .057.792zm9.177 27.225l-10.245.739-.728.041c-1.7.119-1.706.121-2.399-1.397l-3.024-6.624c-.251-.536-.289-.821.405-1.038l4.439-1.562c.617-.217.854-.058 1.089.491l1.449 3.251c.176.5.458.533.915.511l6.217-.453a.62.62 0 0 1 .329.132c.094.075.164.177.202.292l1.738 4.939c.092.301.121.658-.386.677z" fill="#ececec"/><path d="M36.342 44.82l-3.21-9.125c.065-.118.155-.22.264-.299s.234-.133.366-.159l5.619-1.977c.389-.137.778-.274 1.08.189a42.6 42.6 0 0 1 1.261 4.67c.241.742.422 1.502.543 2.272.041.18.03.368-.032.542s-.171.327-.316.441l-5.035 3.437c-.114.073-.251.104-.386.087l-.152-.078z" fill="#f37a33"/><path d="M40.355 33.639c-.109-.309-.246-.482-.639-.337l-6.597 2.37-3.15 1.046-9.095 3.199c-.258.148-.552.22-.849.209l11.99-4.218c.753-.265.875-.551.59-1.262l-1.421-4.038c-.191-.543-.412-.639-.941-.446l-6.174 2.172c-.265.093-.531.325-.835.092.209-.284.517-.479.862-.546l5.915-2.081c.314-.162.676-.2 1.017-.108l12.707-4.47c.253-.089.505-.358.816-.127-.251.449-.732.521-1.15.675l-10.774 3.79c-1.179.415-1.235.434-.818 1.62l1.019 2.896c.365 1.037.438 1.067 1.453.717l4.736-1.666a2.38 2.38 0 0 1 .938-.233c.457.075.729.257.401.747z" fill="#f5dfd8"/><path d="M37.944 51.017c.05-.019.095-.048.133-.086a.39.39 0 0 0 .118-.287c-.001-.053-.013-.106-.034-.155l-1.861-5.291c-.033-.093-.143-.151-.213-.23l.291-.158.026.074a.99.99 0 0 1 .512.687l1.579 4.489c.065.134.102.279.11.428s-.013.297-.063.437l-.135.11-.464-.017z" fill="#f5ded6"/><path d="M28.767 23.792l-2.033-5.779.141-.112.022.062c.129.071.241.168.329.285a1.03 1.03 0 0 1 .181.396l1.488 4.229a1.14 1.14 0 0 1 .045.858l-.173.061z" fill="#f6e0d7"/><path d="M38.498 50.938l-2.126-6.045 5.201-3.578c.432-.291.614-.521.464-1.086l-1.668-6.594c.129-.739-.291-.591-.717-.442l-5.816 2.046c-.617.217-.853.099-1.045-.507l-1.451-4.124c-.217-.617-.099-.833.506-1.045l12.7-4.468 1.658 6.251 2.908 11.521c.104.296.198.562-.181.827l-10.433 7.244zm-9.571-27.202l-2.031-5.773 14.046-4.983c.401-.141.574-.084.68.337l1.287 5.098c.154.438-.157.499-.435.597l-3.285 1.156-10.262 3.568z" fill="#fff"/><path d="M31.008 29.691l-7.773 2.735-2.182-4.783-.291-.827 7.483-2.632c.617-.217.843-.109 1.043.5l1.72 5.008z" fill="#f05b31"/><path d="M85.711 21.983l18.956 12.751c.565.38.666.615.207 1.173l-8.646 10.67-7.199 8.928-8.638 10.682-5.024 6.27c-.12.222-.318.391-.557.473s-.499.071-.73-.03l-17.682-5.727c-.45-.117-.855-.363-1.166-.708L42.713 51.799a.98.98 0 0 1-.101-1.353l7.17-12.795 5.996-10.688 7.077-12.668 2.849-5.117c.3-.559.542-.274.851-.066l19.15 12.882.007-.011z" fill="#117ec1"/><path d="M66.934 22.689c.075-.756.447-.665.929-.341l11.486 7.726c.618.415.924.401 1.324-.25l2.264-3.366c.264-.393.467-.446.876-.171l15.051 10.124c.435.292.484.546.143.918l-3.036 3.722-2.661 3.335-4.067 4.983-2.572 3.213-4.144 5.121-2.533 3.132-4.397 5.406-1.041 1.345s-.728.438-1.203.285l-13.337-4.295-1.181-.392s-.445-.299-.2-.652l2.31-3.434a1.45 1.45 0 0 0 .373-.837c.216-.067.448-.063.661.012l9.223 2.737 1.126.339a1.26 1.26 0 0 0 1.624-.481l2.688-3.34 5.201-6.432 2.255-2.787c.41-.485.11-.74-.264-.999l-8.507-5.723c-.22-.137-.429-.292-.623-.465-.134-.128-.305-.281-.219-.466s.303-.191.491-.164c.747.099 1.499.248 2.228.419l10.665 2.232a1.26 1.26 0 0 0 1.562-.637l1.873-2.785c.483-.717.458-.817-.264-1.303l-10.611-7.138-.523-.352-.241-.162-11.292-7.596c-.407-.324-.915-.494-1.435-.478z" fill="#1a8ecd"/><path d="M66.936 22.689c.211-.314.358-.588.831-.263l12.145 8.215a1.35 1.35 0 0 1-.356.924l-8.652 12.863c-.129.288-.362.517-.652.641-.212-.042-.407-.144-.562-.295L59.513 37.93c-.168-.113-.386-.184-.474-.425l2.146-4.411c.226-.494.47-.551.942-.461l13.182 2.457a1.93 1.93 0 0 0 .854-.003l-.576-.387-10.24-6.888c-.487-.328-.67-.542-.338-1.148l1.927-3.973zm-5.81 35.262l-7.144-8.258c-1.059-1.229-1.026-1.222-.231-2.619a239.71 239.71 0 0 0 3.279-5.938c.295-.562.514-.764 1.146-.301l3.633 2.444c.429.289.474.539.26.935l-1.457 2.754c-.254.445-.295.744.119 1.145l4.278 4.322a.5.5 0 0 1 .115.428c-.964 1.716-2.147 3.293-3.251 4.923-.18.267-.415.572-.75.165z" fill="#ebecec"/><path d="M65.07 52.688l-.076-.226c.332.162.468-.073.615-.293l4.307-6.402c.352-.523.049-.728-.313-.971l-9.905-6.663c-.246-.166-.601-.237-.633-.631l7.769 5.272 3.377 2.271a1.26 1.26 0 0 1 .292.006c1.861 1.054 3.586 2.321 5.338 3.538.523.352.513.718.024 1.332l-2.017 2.445-2.012 2.448c-.327.396-.72.641-1.222.425l-5.373-2.344a.76.76 0 0 1-.172-.207z" fill="#018dc4"/><path d="M65.07 52.688l.136.092a1.71 1.71 0 0 1-.475 1.125l-2.922 4.513c-.196.066-.341-.07-.5-.139l-.182-.328c.444.2.529-.199.688-.435l3.256-4.828z" fill="#c3dceb"/><path d="M61.811 58.418c-.347-.332-.015-.565.143-.801l3.254-4.837 5.317 2.269c.423.185.697.195 1.009-.188l4.158-5.05c.415-.481.476-.775-.154-1.184l-5.188-3.49c.033-.215.134-.413.289-.566l9.005-13.386a1.08 1.08 0 0 1 .415-.481l11.695 7.822c.309.208.345.392.135.692l-2.701 4.015c-.271.403-.566.265-.876.171l-12.608-2.611c-.355-.091-.725-.11-1.088-.055l.675.454 8.957 6.025c.523.352.579.564.179 1.056L74.331 60.764c-.911 1.128-.904 1.141-2.292.739l-10.228-3.086z" fill="#fff"/><path d="M80.03 30.737l-9.691 14.407-.131-.088L79.9 30.649c.052.015.097.046.131.088z" fill="#d0e2ec"/></svg>