<svg xmlns="http://www.w3.org/2000/svg" width="88" height="88" fill="none" xmlns:v="https://vecta.io/nano"><path d="M23.978 0A23.98 23.98 0 0 0 7.023 7.023 23.98 23.98 0 0 0 0 23.978v40.044A23.98 23.98 0 0 0 23.978 88h40.006a23.98 23.98 0 0 0 23.978-23.978V24.016A23.98 23.98 0 0 0 63.984.038L23.978 0zm0 4.001h40.006c2.627-.005 5.229.509 7.658 1.511s4.635 2.475 6.493 4.332 3.332 4.063 4.336 6.49 1.519 5.03 1.516 7.657v40.031a19.98 19.98 0 0 1-5.851 14.152c-1.858 1.858-4.064 3.331-6.493 4.335a19.98 19.98 0 0 1-7.659 1.516H23.978c-2.628.003-5.23-.512-7.659-1.516s-4.635-2.477-6.493-4.335a19.98 19.98 0 0 1-5.851-14.152V24.016c-.007-2.629.506-5.234 1.509-7.665s2.476-4.639 4.334-6.499 4.066-3.334 6.496-4.338 5.034-1.519 7.664-1.514zm-6.764 26.124a2.32 2.32 0 0 0-1.254.451c-.365.27-.643.64-.799 1.066a2.32 2.32 0 0 0 .582 2.486 2.32 2.32 0 0 0 2.513.449c.417-.179.772-.476 1.022-.855a2.32 2.32 0 0 0 .384-1.276c-.001-.315-.066-.627-.192-.917s-.308-.55-.536-.767-.499-.385-.795-.495-.61-.158-.925-.143zm20.849 1.148c-7.282 0-11.85 5.048-11.85 13.289s4.48 13.302 11.85 13.302 11.812-5.149 11.812-13.302-4.505-13.289-11.812-13.289zm25.859 0c-5.54 0-9.238 3.004-9.238 7.572 0 3.723 2.095 5.944 6.689 7.017l3.269.795c3.357.782 4.834 1.944 4.834 3.874 0 2.259-2.322 3.887-5.49 3.887-3.382 0-5.742-1.527-6.083-3.937h-3.9c.278 4.543 4.064 7.433 9.68 7.433 6.02 0 9.781-3.029 9.781-7.888 0-3.786-2.145-5.919-7.358-7.13l-2.789-.694c-3.306-.77-4.644-1.805-4.644-3.622 0-2.284 2.082-3.786 5.187-3.786s5.048 1.451 5.364 3.786h3.786c-.177-4.303-3.937-7.307-9.086-7.307zm-25.859 3.723c4.808 0 7.787 3.786 7.787 9.616s-2.978 9.629-7.787 9.629-7.824-3.786-7.824-9.629 2.991-9.616 7.825-9.616zm-22.716 3.168v19.145h3.786V38.113l-3.786.051z" fill="#000"/></svg>