<svg xmlns="http://www.w3.org/2000/svg" width="148" height="148" fill="none" xmlns:v="https://vecta.io/nano"><path d="M73.985.424l-24.561 25.97-24.616 25.915L.41 78.113V.424h73.574z" fill="#1d90cf"/><path d="M73.985.424h-.165L49.332 26.32 24.77 52.272.41 77.985v.128.366 69.13l35.516-35.534 25.275-25.257 25.293-25.311 25.311-25.311L147.577.424H73.985z" fill="#f5881f"/><path d="M35.926 112.076L.41 147.611v-69.13l35.516 33.595z" fill="#b65da3"/><path d="M61.201 86.817l-25.275 25.256L.41 78.477v-.366l24.397-25.805 36.394 34.51z" fill="#d3638e"/><path d="M86.488 61.508L61.195 86.82l-36.394-34.51 24.616-25.915 37.071 35.114z" fill="#df6f62"/><path d="M111.804 36.196L86.493 61.507 49.422 26.393 73.983.424l37.821 35.772z" fill="#eb7d37"/><path d="M147.573.424l-35.772 35.772L73.981.424h73.593z" fill="#f5881f"/><path d="M22.923 54.195L8.53 69.447.41 61.766V32.889l22.513 21.306z" fill="#0794d2"/><path d="M37.316 38.94L22.923 54.192.41 32.886V3.99L37.316 38.94z" fill="#3b84c5"/><path d="M51.746 23.742l-14.43 15.198L.41 3.99V.424h26.683l24.653 23.318z" fill="#5b77b9"/><path d="M66.136 8.489L51.743 23.742 27.09.424h46.892l-7.846 8.065z" fill="#766db1"/><path d="M69.906 78.113L.41 147.609h13.68 33.413 91.899L69.906 78.113z" fill="#0794d2"/><path d="M80.863 147.611H47.505l-23.555-23.5 16.679-16.679 40.235 40.179z" fill="#3b84c5"/><path d="M114.309 147.611H80.86l-40.235-40.179 16.679-16.698 57.005 56.877z" fill="#5b77b9"/><path d="M147.58 147.61h-33.266L57.309 90.733l16.679-16.716 73.592 73.592z" fill="#766db1"/></svg>