<svg xmlns="http://www.w3.org/2000/svg" width="100" height="88" fill="none" xmlns:v="https://vecta.io/nano"><path d="M49.722 35.262c-1.741-.002-3.443.511-4.893 1.476s-2.581 2.336-3.252 3.942-.851 3.376-.518 5.084 1.165 3.281 2.39 4.517 2.789 2.083 4.495 2.432 3.476.186 5.089-.47 2.995-1.774 3.973-3.215 1.507-3.138 1.522-4.879a8.85 8.85 0 0 0-2.562-6.268c-.818-.825-1.79-1.482-2.861-1.931s-2.221-.684-3.382-.689zm0 0c-1.741-.002-3.443.511-4.893 1.476s-2.581 2.336-3.252 3.942-.851 3.376-.518 5.084 1.165 3.281 2.39 4.517 2.789 2.083 4.495 2.432 3.476.186 5.089-.47 2.995-1.774 3.973-3.215 1.507-3.138 1.522-4.879a8.85 8.85 0 0 0-2.562-6.268c-.818-.825-1.79-1.482-2.861-1.931s-2.221-.684-3.382-.689zm0 0c-1.741-.002-3.443.511-4.893 1.476s-2.581 2.336-3.252 3.942-.851 3.376-.518 5.084 1.165 3.281 2.39 4.517 2.789 2.083 4.495 2.432 3.476.186 5.089-.47 2.995-1.774 3.973-3.215 1.507-3.138 1.522-4.879a8.85 8.85 0 0 0-2.562-6.268c-.818-.825-1.79-1.482-2.861-1.931s-2.221-.684-3.382-.689zm0 0c-1.741-.002-3.443.511-4.893 1.476s-2.581 2.336-3.252 3.942-.851 3.376-.518 5.084 1.165 3.281 2.39 4.517 2.789 2.083 4.495 2.432 3.476.186 5.089-.47 2.995-1.774 3.973-3.215 1.507-3.138 1.522-4.879a8.85 8.85 0 0 0-2.562-6.268c-.818-.825-1.79-1.482-2.861-1.931s-2.221-.684-3.382-.689zm0 0c-1.741-.002-3.443.511-4.893 1.476s-2.581 2.336-3.252 3.942-.851 3.376-.518 5.084 1.165 3.281 2.39 4.517 2.789 2.083 4.495 2.432 3.476.186 5.089-.47 2.995-1.774 3.973-3.215 1.507-3.138 1.522-4.879a8.85 8.85 0 0 0-2.562-6.268c-.818-.825-1.79-1.482-2.861-1.931s-2.221-.684-3.382-.689zm0 0c-1.741-.002-3.443.511-4.893 1.476s-2.581 2.336-3.252 3.942-.851 3.376-.518 5.084 1.165 3.281 2.39 4.517 2.789 2.083 4.495 2.432 3.476.186 5.089-.47 2.995-1.774 3.973-3.215 1.507-3.138 1.522-4.879a8.85 8.85 0 0 0-2.562-6.268c-.818-.825-1.79-1.482-2.861-1.931s-2.221-.684-3.382-.689zm0 0c-1.741-.002-3.443.511-4.893 1.476s-2.581 2.336-3.252 3.942-.851 3.376-.518 5.084 1.165 3.281 2.39 4.517 2.789 2.083 4.495 2.432 3.476.186 5.089-.47 2.995-1.774 3.973-3.215 1.507-3.138 1.522-4.879a8.85 8.85 0 0 0-2.562-6.268c-.818-.825-1.79-1.482-2.861-1.931s-2.221-.684-3.382-.689zm0 0c-1.741-.002-3.443.511-4.893 1.476s-2.581 2.336-3.252 3.942-.851 3.376-.518 5.084 1.165 3.281 2.39 4.517 2.789 2.083 4.495 2.432 3.476.186 5.089-.47 2.995-1.774 3.973-3.215 1.507-3.138 1.522-4.879a8.85 8.85 0 0 0-2.562-6.268c-.818-.825-1.79-1.482-2.861-1.931s-2.221-.684-3.382-.689zm0 0c-1.741-.002-3.443.511-4.893 1.476s-2.581 2.336-3.252 3.942-.851 3.376-.518 5.084 1.165 3.281 2.39 4.517 2.789 2.083 4.495 2.432 3.476.186 5.089-.47 2.995-1.774 3.973-3.215 1.507-3.138 1.522-4.879a8.85 8.85 0 0 0-2.562-6.268c-.818-.825-1.79-1.482-2.861-1.931s-2.221-.684-3.382-.689zm0 0c-1.741-.002-3.443.511-4.893 1.476s-2.581 2.336-3.252 3.942-.851 3.376-.518 5.084 1.165 3.281 2.39 4.517 2.789 2.083 4.495 2.432 3.476.186 5.089-.47 2.995-1.774 3.973-3.215 1.507-3.138 1.522-4.879a8.85 8.85 0 0 0-2.562-6.268c-.818-.825-1.79-1.482-2.861-1.931s-2.221-.684-3.382-.689zm0 0c-1.741-.002-3.443.511-4.893 1.476s-2.581 2.336-3.252 3.942-.851 3.376-.518 5.084 1.165 3.281 2.39 4.517 2.789 2.083 4.495 2.432 3.476.186 5.089-.47 2.995-1.774 3.973-3.215 1.507-3.138 1.522-4.879a8.85 8.85 0 0 0-2.562-6.268c-.818-.825-1.79-1.482-2.861-1.931s-2.221-.684-3.382-.689zm0 0c-1.741-.002-3.443.511-4.893 1.476s-2.581 2.336-3.252 3.942-.851 3.376-.518 5.084 1.165 3.281 2.39 4.517 2.789 2.083 4.495 2.432 3.476.186 5.089-.47 2.995-1.774 3.973-3.215 1.507-3.138 1.522-4.879a8.85 8.85 0 0 0-2.562-6.268c-.818-.825-1.79-1.482-2.861-1.931s-2.221-.684-3.382-.689zm0 0c-1.741-.002-3.443.511-4.893 1.476s-2.581 2.336-3.252 3.942-.851 3.376-.518 5.084 1.165 3.281 2.39 4.517 2.789 2.083 4.495 2.432 3.476.186 5.089-.47 2.995-1.774 3.973-3.215 1.507-3.138 1.522-4.879a8.85 8.85 0 0 0-2.562-6.268c-.818-.825-1.79-1.482-2.861-1.931s-2.221-.684-3.382-.689zm0 0c-1.741-.002-3.443.511-4.893 1.476s-2.581 2.336-3.252 3.942-.851 3.376-.518 5.084 1.165 3.281 2.39 4.517 2.789 2.083 4.495 2.432 3.476.186 5.089-.47 2.995-1.774 3.973-3.215 1.507-3.138 1.522-4.879a8.85 8.85 0 0 0-2.562-6.268c-.818-.825-1.79-1.482-2.861-1.931s-2.221-.684-3.382-.689zm48.486 4.158c-1.041-1.873-2.456-3.512-4.158-4.813a34.48 34.48 0 0 0-8.597-4.927 54.03 54.03 0 0 0-6.321-2.193c-.353-.104-.468-.27-.374-.624l.489-2.152a46.92 46.92 0 0 0 1.04-7.693c.123-1.934.074-3.875-.146-5.801a17.94 17.94 0 0 0-1.528-5.531 10.47 10.47 0 0 0-3.555-4.283C73.905.59 72.554.105 71.148 0h-3.555c-.094.073-.198 0-.302 0h-.062c-.538.043-1.073.123-1.601.239a29.11 29.11 0 0 0-9.044 4.553c-2.325 1.642-4.512 3.47-6.539 5.468-.239.239-.405.249-.655 0L46.749 7.87a41.83 41.83 0 0 0-9.283-6.237A14.18 14.18 0 0 0 32.112.01h-.062-.301-3.524c-.073.03-.155.03-.229 0h-.104c-.555.045-1.102.153-1.632.322-2.46.968-4.445 2.86-5.531 5.271a20.51 20.51 0 0 0-1.757 8.202l.062 3.119a50.28 50.28 0 0 0 .322 3.368 58.36 58.36 0 0 0 1.175 6.237c.187.738.166.738-.561.956-3.472.992-6.834 2.336-10.032 4.013a24.76 24.76 0 0 0-6.736 5.032c-.873.928-1.605 1.978-2.173 3.119a9.7 9.7 0 0 0-1.019 4.774 9.7 9.7 0 0 0 1.435 4.666 16.56 16.56 0 0 0 4.688 5 37.22 37.22 0 0 0 8.67 4.636 59.31 59.31 0 0 0 5.416 1.84c.457.135.478.177.374.624-.426 1.767-.8 3.545-1.04 5.343a45.95 45.95 0 0 0-.561 6.435 30.63 30.63 0 0 0 .177 3.379 18.92 18.92 0 0 0 1.175 5.125c.599 1.633 1.571 3.103 2.838 4.293 1.292 1.281 2.991 2.072 4.803 2.235h3.878c.101-.037.211-.037.312 0h.073a7.93 7.93 0 0 0 2.027-.322 28.71 28.71 0 0 0 7.88-3.94c2.598-1.761 5.033-3.751 7.277-5.946.26-.26.426-.229.686 0 1.362 1.268 2.745 2.516 4.158 3.68 2.879 2.395 6.108 4.334 9.575 5.749a9.9 9.9 0 0 0 3.327.769h.073c.074-.025.155-.025.229 0h3.961a12.48 12.48 0 0 0 1.632-.27 9.69 9.69 0 0 0 4.678-3.659 16.04 16.04 0 0 0 2.505-7.204 37.42 37.42 0 0 0 .166-5.198c-.031-1.259-.135-2.516-.312-3.763-.297-2.285-.724-4.552-1.279-6.788-.083-.312 0-.457.312-.541.811-.229 1.632-.478 2.433-.759a48.92 48.92 0 0 0 8.67-3.763 22.56 22.56 0 0 0 6.653-5.395 10.78 10.78 0 0 0 2.537-6.341c.031-1.702-.392-3.382-1.227-4.865v-.021zm-4.065 7.371a11.3 11.3 0 0 1-2.672 3.119 27.03 27.03 0 0 1-6.061 3.711 53.52 53.52 0 0 1-7.714 2.828c-.395.114-.405.114-.52-.27a104.8 104.8 0 0 0-4.532-11.685.83.83 0 0 1 0-.78 103.56 103.56 0 0 0 4.304-11.113c.052-.187.104-.364.166-.551.135-.426.135-.437.582-.302l2.433.769a43.59 43.59 0 0 1 6.976 2.921c2.001 1.001 3.835 2.305 5.437 3.867a9.2 9.2 0 0 1 1.84 2.609 5.56 5.56 0 0 1 .499 2.152c-.018.961-.272 1.904-.738 2.744v-.021zM49.514 59.984c-1.632 0-3.441 0-5.25-.104-1.04 0-2.017-.125-3.025-.166a1.04 1.04 0 0 1-.853-.499 127.78 127.78 0 0 1-8.452-14.627 1.04 1.04 0 0 1 0-1.04 125.43 125.43 0 0 1 8.473-14.668c.083-.14.202-.256.345-.337s.303-.122.466-.121c2.308-.156 4.626-.218 6.944-.281l5.988.062c1.424 0 2.838.166 4.262.229.101.006.2.037.285.092s.156.13.203.22a103.07 103.07 0 0 1 2.183 3.358c2.338 3.696 4.479 7.513 6.414 11.435.082.142.125.304.125.468s-.043.326-.125.468a126.77 126.77 0 0 1-8.493 14.71c-.084.143-.204.262-.348.344s-.307.125-.473.124c-2.838.239-5.666.385-8.67.353v-.021zm5.811 4.158a54.78 54.78 0 0 1-5.645 6.871 77.95 77.95 0 0 1-5.645-6.84c3.805.198 7.526.187 11.29.031v-.062zm-33.589-7.766a47.58 47.58 0 0 1-10.531-4.231 19.41 19.41 0 0 1-4.387-3.295c-.799-.782-1.441-1.711-1.892-2.734a5.2 5.2 0 0 1-.413-2.146c.016-.737.189-1.461.506-2.126.381-.794.878-1.526 1.476-2.173a19.23 19.23 0 0 1 4.792-3.69c2.758-1.54 5.671-2.784 8.691-3.711l1.767-.541.239-.062c.039-.002.078.01.11.032s.056.055.067.093c.023.085.051.168.083.25a102.22 102.22 0 0 0 4.533 11.695c.061.106.093.226.093.348s-.032.242-.093.348a103.52 103.52 0 0 0-4.543 11.726c-.114.364-.135.385-.499.281v-.062zm4.959-25.989a79.61 79.61 0 0 1 4.439-.863l3.483-.52c.163-.05.336-.05.499 0-2.079 3.212-3.919 6.466-5.666 9.803-.116-.095-.197-.227-.229-.374-1.04-2.453-1.944-4.938-2.755-7.464a.58.58 0 0 1 0-.125c-.166-.26-.166-.27.229-.354v-.104zm2.745 18.712c1.767 3.368 3.638 6.643 5.686 9.845-2.956-.283-5.888-.777-8.774-1.476.843-2.821 1.874-5.582 3.088-8.265v-.104zm20.698-31.665c1.746 1.913 3.379 3.909 4.959 5.957a1.73 1.73 0 0 1 .302.478c-3.805-.135-7.568-.146-11.321 0-.062-.125 0-.198.062-.26a100.85 100.85 0 0 1 5.115-6.165c.447-.385.447-.385.884.094v-.104zm14.159 11.581c.376-.042.757-.014 1.123.083 2.433.333 4.865.738 7.277 1.279h.218c.029.005.056.017.08.034s.043.04.056.067.02.055.02.085-.007.058-.021.085a.58.58 0 0 1 0 .125 92.07 92.07 0 0 1-2.89 7.828s0 .104-.114.229l-1.83-3.337c-.613-1.092-1.3-2.058-1.934-3.098l-1.986-3.275v-.104zm5.655 20.116a.83.83 0 0 1 .249.405c1.04 2.412 1.923 4.855 2.713 7.35.198.613.333.582-.426.749-2.214.478-4.46.852-6.705 1.196l-1.549.187c2.079-3.15 3.961-6.414 5.718-9.782v-.104zm.894-44.847a5.26 5.26 0 0 1 3.535 2.744c.612 1.158 1.03 2.408 1.237 3.701.196 1.214.304 2.44.322 3.67-.029 3.146-.377 6.281-1.04 9.356l-.489 2.079c-.104.437-.104.437-.509.343-1.331-.302-2.672-.561-4.013-.79a90.9 90.9 0 0 0-5.198-.78c-1.04-.135-2.162-.27-3.243-.343a.75.75 0 0 1-.582-.405c-1.13-1.601-2.311-3.171-3.545-4.709a107.21 107.21 0 0 0-4.314-5.063c-.249-.27-.249-.281 0-.509a47.74 47.74 0 0 1 8.67-6.82 19.69 19.69 0 0 1 5.78-2.433c1.121-.221 2.277-.2 3.389.062v-.104zm-41.281-.135c1.162-.039 2.323.123 3.431.478a21.49 21.49 0 0 1 5.052 2.349 44.75 44.75 0 0 1 6.341 4.74l2.079 1.882c.281.26.27.27 0 .551a100.47 100.47 0 0 0-7.922 9.928c-.063.105-.151.194-.256.257s-.224.1-.347.107c-1.404.104-2.797.281-4.158.468-1.934.26-3.857.561-5.77.946-.821.156-1.632.333-2.453.509-.395.083-.405.083-.499-.312-.583-2.319-1.017-4.674-1.3-7.048a35.1 35.1 0 0 1-.249-3.909 20.25 20.25 0 0 1 .707-5.915 8.19 8.19 0 0 1 1.747-3.275 5.2 5.2 0 0 1 3.597-1.653v-.104zm2.194 79.496c-1.005.218-2.043.239-3.056.062a5.03 5.03 0 0 1-3.244-2.079c-.763-1.118-1.287-2.381-1.539-3.711a19.93 19.93 0 0 1-.457-4.241 44.52 44.52 0 0 1 .936-8.816c.187-.946.416-1.892.634-2.838.083-.353.094-.353.437-.27 2.211.492 4.446.901 6.705 1.227 1.778.26 3.566.499 5.364.655.759.073.759.062 1.206.676a112.17 112.17 0 0 0 6.123 7.776 65.94 65.94 0 0 0 1.622 1.809c.146.156.177.27 0 .437-3.097 3.17-6.654 5.855-10.552 7.963-1.32.674-2.726 1.164-4.179 1.455v-.104zm38.35.145c-1.23.09-2.465-.058-3.638-.437a23 23 0 0 1-5.635-2.682c-2.078-1.329-4.043-2.828-5.874-4.481-.676-.603-1.341-1.227-2.006-1.85-.249-.229-.249-.239 0-.478 2.85-3.123 5.506-6.418 7.953-9.866.054-.094.131-.173.224-.229s.198-.088.306-.093l4.283-.499c2.516-.343 5.011-.759 7.495-1.289l.78-.166c.322-.062.333 0 .416.27l.624 2.786a53.25 53.25 0 0 1 .78 5.136c.104 1.04.114 2.131.166 3.181.027 1.903-.201 3.802-.676 5.645a8.72 8.72 0 0 1-1.455 3.036 5.03 5.03 0 0 1-3.743 2.121v-.104zM49.722 35.262c-1.741-.002-3.443.511-4.893 1.476s-2.581 2.336-3.252 3.942-.851 3.376-.518 5.084 1.165 3.281 2.39 4.517 2.789 2.083 4.495 2.432 3.476.186 5.089-.47 2.995-1.774 3.973-3.215 1.507-3.138 1.522-4.879a8.85 8.85 0 0 0-2.562-6.268c-.818-.825-1.79-1.482-2.861-1.931s-2.221-.684-3.382-.689zm0 0c-1.741-.002-3.443.511-4.893 1.476s-2.581 2.336-3.252 3.942-.851 3.376-.518 5.084 1.165 3.281 2.39 4.517 2.789 2.083 4.495 2.432 3.476.186 5.089-.47 2.995-1.774 3.973-3.215 1.507-3.138 1.522-4.879a8.85 8.85 0 0 0-2.562-6.268c-.818-.825-1.79-1.482-2.861-1.931s-2.221-.684-3.382-.689zm0 0c-1.741-.002-3.443.511-4.893 1.476s-2.581 2.336-3.252 3.942-.851 3.376-.518 5.084 1.165 3.281 2.39 4.517 2.789 2.083 4.495 2.432 3.476.186 5.089-.47 2.995-1.774 3.973-3.215 1.507-3.138 1.522-4.879a8.85 8.85 0 0 0-2.562-6.268c-.818-.825-1.79-1.482-2.861-1.931s-2.221-.684-3.382-.689zm0 0c-1.741-.002-3.443.511-4.893 1.476s-2.581 2.336-3.252 3.942-.851 3.376-.518 5.084 1.165 3.281 2.39 4.517 2.789 2.083 4.495 2.432 3.476.186 5.089-.47 2.995-1.774 3.973-3.215 1.507-3.138 1.522-4.879a8.85 8.85 0 0 0-2.562-6.268c-.818-.825-1.79-1.482-2.861-1.931s-2.221-.684-3.382-.689zm0 0c-1.741-.002-3.443.511-4.893 1.476s-2.581 2.336-3.252 3.942-.851 3.376-.518 5.084 1.165 3.281 2.39 4.517 2.789 2.083 4.495 2.432 3.476.186 5.089-.47 2.995-1.774 3.973-3.215 1.507-3.138 1.522-4.879a8.85 8.85 0 0 0-2.562-6.268c-.818-.825-1.79-1.482-2.861-1.931s-2.221-.684-3.382-.689zm0 0c-1.741-.002-3.443.511-4.893 1.476s-2.581 2.336-3.252 3.942-.851 3.376-.518 5.084 1.165 3.281 2.39 4.517 2.789 2.083 4.495 2.432 3.476.186 5.089-.47 2.995-1.774 3.973-3.215 1.507-3.138 1.522-4.879a8.85 8.85 0 0 0-2.562-6.268c-.818-.825-1.79-1.482-2.861-1.931s-2.221-.684-3.382-.689zm0 0c-1.741-.002-3.443.511-4.893 1.476s-2.581 2.336-3.252 3.942-.851 3.376-.518 5.084 1.165 3.281 2.39 4.517 2.789 2.083 4.495 2.432 3.476.186 5.089-.47 2.995-1.774 3.973-3.215 1.507-3.138 1.522-4.879a8.85 8.85 0 0 0-2.562-6.268c-.818-.825-1.79-1.482-2.861-1.931s-2.221-.684-3.382-.689zm0 0c-1.741-.002-3.443.511-4.893 1.476s-2.581 2.336-3.252 3.942-.851 3.376-.518 5.084 1.165 3.281 2.39 4.517 2.789 2.083 4.495 2.432 3.476.186 5.089-.47 2.995-1.774 3.973-3.215 1.507-3.138 1.522-4.879a8.85 8.85 0 0 0-2.562-6.268c-.818-.825-1.79-1.482-2.861-1.931s-2.221-.684-3.382-.689zm0 0c-1.741-.002-3.443.511-4.893 1.476s-2.581 2.336-3.252 3.942-.851 3.376-.518 5.084 1.165 3.281 2.39 4.517 2.789 2.083 4.495 2.432 3.476.186 5.089-.47 2.995-1.774 3.973-3.215 1.507-3.138 1.522-4.879a8.85 8.85 0 0 0-2.562-6.268c-.818-.825-1.79-1.482-2.861-1.931s-2.221-.684-3.382-.689zm0 0c-1.741-.002-3.443.511-4.893 1.476s-2.581 2.336-3.252 3.942-.851 3.376-.518 5.084 1.165 3.281 2.39 4.517 2.789 2.083 4.495 2.432 3.476.186 5.089-.47 2.995-1.774 3.973-3.215 1.507-3.138 1.522-4.879a8.85 8.85 0 0 0-2.562-6.268c-.818-.825-1.79-1.482-2.861-1.931s-2.221-.684-3.382-.689zm0 0c-1.741-.002-3.443.511-4.893 1.476s-2.581 2.336-3.252 3.942-.851 3.376-.518 5.084 1.165 3.281 2.39 4.517 2.789 2.083 4.495 2.432 3.476.186 5.089-.47 2.995-1.774 3.973-3.215 1.507-3.138 1.522-4.879a8.85 8.85 0 0 0-2.562-6.268c-.818-.825-1.79-1.482-2.861-1.931s-2.221-.684-3.382-.689zm0 0c-1.741-.002-3.443.511-4.893 1.476s-2.581 2.336-3.252 3.942-.851 3.376-.518 5.084 1.165 3.281 2.39 4.517 2.789 2.083 4.495 2.432 3.476.186 5.089-.47 2.995-1.774 3.973-3.215 1.507-3.138 1.522-4.879a8.85 8.85 0 0 0-2.562-6.268c-.818-.825-1.79-1.482-2.861-1.931s-2.221-.684-3.382-.689zm0 0c-1.741-.002-3.443.511-4.893 1.476s-2.581 2.336-3.252 3.942-.851 3.376-.518 5.084 1.165 3.281 2.39 4.517 2.789 2.083 4.495 2.432 3.476.186 5.089-.47 2.995-1.774 3.973-3.215 1.507-3.138 1.522-4.879a8.85 8.85 0 0 0-2.562-6.268c-.818-.825-1.79-1.482-2.861-1.931s-2.221-.684-3.382-.689z" fill="#6fceef"/></svg>