<svg xmlns="http://www.w3.org/2000/svg" width="103" height="89" fill="none" xmlns:v="https://vecta.io/nano"><path d="M102.284.122h-.12c-.168.113-.371.16-.572.132H82.313a.98.98 0 0 1-.505-.077c-.01-.009-.017-.02-.022-.033s-.008-.025-.008-.039.003-.027.008-.039.013-.023.022-.033h20.103c.11-.011.253-.11.373.088z" fill="#76c6a1"/><path d="M81.786.024v.099c0 .121-.077.132-.165.132-.26.016-.52.016-.78 0H63.66c-.275 0-.56.066-.791-.132V.035L81.786.024z" fill="#466c71"/><path d="M81.698.199L81.786.1h20.377l-2.361 4.163-31.857 55.091-16.61 28.76c-.099.187-.132.45-.407.505l-2.604-4.57L17.95 31.441.077.485C.042.366.017.245 0 .122h20.411l.088.099c.264.11.34.384.461.604l4.262 7.371 7.185 12.457 6.591 11.304 5.734 9.953 5.196 8.975.923 1.615a1.15 1.15 0 0 0 .351.472l1.307-2.197 5.591-9.7 5.833-10.106 5.163-8.942 5.811-10.063 5.207-9.019L81.478.595c0-.187.044-.352.22-.395z" fill="#41b580"/><path d="M81.698.199L77.71 7.12l-5.108 8.854-8.623 14.907-9.261 16.083-3.504 6.053-.143.198-1.099-1.802-6.701-11.578-7.02-12.194-7.503-12.963-7.02-12.194L20.411.199c.099-.121.242-.088.363-.088H39.24l5.317 9.184 6.229 10.788.22.352a1.68 1.68 0 0 0 .373-.549L62.539.551l.275-.439h18.477c.176.011.308.011.406.088z" fill="#35495e"/></svg>